# xmcd
#
# Track frame offsets:
#	150
#	9343
#	27789
#	39886
#	58207
#	71532
#	89734
#	104301
#	120121
#	134721
#
# Disc length: 2066 seconds
#
# Revision: 0
# Processed by: cddbd v1.5.2PL0 Copyright (c) Steve Scherf et al.
# Submitted via: EasyCDDAExtractor 10.2.0.1
#
DISCID=7e08100a
DTITLE=The Flowers Family - By Request
DYEAR=2000
DGENRE=Gospel
TTITLE0=Faith Man
TTITLE1=I'll Talk To The Father
TTITLE2=Satan Can't Cross The Blood
TTITLE3=Roses Will Bloom Again
TTITLE4=Ready Or Not Here I Come
TTITLE5=Once Was Enough
TTITLE6=Far Side Banks Of Jordan
TTITLE7=When You're Looking At Me
TTITLE8=Broken Worthless Vessel
TTITLE9=God's Promise Land
EXTD=
EXTT0=
EXTT1=
EXTT2=
EXTT3=
EXTT4=
EXTT5=
EXTT6=
EXTT7=
EXTT8=
EXTT9=
PLAYORDER=
